<svg width="100%" height="100%" viewBox="0 0 26 28" fill="none" xmlns="http://www.w3.org/2000/svg">
    <path d="M18.1208 18.5811L17.23 18.7248L17.6777 19.5083C18.0532 20.1655 18.1641 20.9467 18.1641 21.8144V26.4769C18.1641 26.6365 18.1178 26.7043 18.0991 26.7248C18.0837 26.7417 18.057 26.7619 17.9928 26.7619V26.7619L17.9841 26.762C17.9476 26.7625 17.9115 26.7557 17.8777 26.742C17.844 26.7283 17.8133 26.708 17.7876 26.6822C17.7618 26.6564 17.7415 26.6258 17.7278 26.592C17.7141 26.5583 17.7073 26.5221 17.7078 26.4857H17.7078V26.4769V21.8517C17.7719 21.2927 17.7092 20.7263 17.5243 20.1945C17.3811 19.7829 17.1676 19.4004 16.8942 19.0637L17.1922 18.2889C18.8672 18.0488 20.6505 17.6116 22.0436 16.468C23.5768 15.2093 24.5328 13.1883 24.5328 9.98567C24.5328 8.38936 23.9359 6.92255 22.8847 5.70522L22.7414 5.13289C23.1583 3.95977 23.1784 2.67994 22.7952 1.49138L22.6245 0.961925L22.0788 1.0701C21.4557 1.19363 20.2679 1.4437 18.3209 2.79582L17.9052 2.86422C15.1989 2.19898 12.3718 2.19898 9.6655 2.86422L9.22915 2.79243C7.23643 1.58481 5.99967 1.17192 5.25533 1.17192H4.79031L4.65669 1.61733C4.30415 2.79246 4.27182 4.11209 4.71176 5.25761L4.57589 5.80332C3.40442 7.03905 2.81033 8.61806 2.81033 10.0994C2.81033 13.236 3.70362 15.2561 5.20602 16.5323C6.57185 17.6925 8.35221 18.1567 10.1212 18.4013L10.3534 19.156C9.72801 19.9146 9.40982 20.8728 9.52033 21.8514V26.5907L9.52027 26.5907L9.52039 26.5994C9.5209 26.6359 9.51411 26.672 9.5004 26.7058C9.4867 26.7395 9.46637 26.7702 9.44061 26.7959C9.41485 26.8217 9.38419 26.842 9.35043 26.8557C9.31668 26.8694 9.28052 26.8762 9.2441 26.8757L9.23533 26.8756L9.22656 26.8757C9.19014 26.8762 9.15398 26.8694 9.12023 26.8557C9.08648 26.842 9.05581 26.8217 9.03006 26.7959C9.0043 26.7702 8.98396 26.7395 8.97026 26.7058C8.95656 26.672 8.94976 26.6359 8.95027 26.5994H8.95033V26.5907V23.9757V23.2041L8.1956 23.3643C6.44924 23.7348 5.30297 23.4607 4.47376 22.9801C3.61491 22.4823 3.0295 21.7297 2.45182 20.9794L2.44445 20.9698L2.43672 20.9606C2.41404 20.9333 2.39129 20.906 2.36847 20.8785C2.11608 20.5751 1.85517 20.2614 1.58947 20.0105C1.35195 19.7862 1.07024 19.5716 0.730992 19.4506C0.711581 19.4196 0.692514 19.3854 0.675905 19.3495C0.622094 19.2331 0.620272 19.1591 0.62917 19.1235C0.649449 19.0424 0.698767 18.9858 0.734254 18.964C0.743733 18.9582 0.749539 18.9564 0.751707 18.9558C0.754237 18.9563 0.759753 18.9579 0.768936 18.9625L0.843527 18.9997L0.925259 19.016C1.74223 19.1794 2.26003 19.7881 2.92075 20.5647C2.96643 20.6184 3.01278 20.6729 3.05997 20.7281C3.56315 21.3979 4.14931 22.1578 5.05272 22.626C5.98834 23.111 7.17158 23.2426 8.80198 22.8808L9.29158 22.7722V22.2707V21.8157V21.7772L9.28686 21.739C9.19337 20.9828 9.37925 20.2073 9.77798 19.5095L10.2082 18.7566L9.3579 18.5866C7.70686 18.2563 5.99332 17.6364 4.69458 16.3764C3.41407 15.1342 2.46783 13.2025 2.46783 10.1007C2.46783 8.42301 2.98777 6.97302 4.02922 5.72328L4.22398 5.48957L4.16019 5.19211C3.8541 3.76481 3.94602 2.25462 4.40938 1.04582L4.76183 0.763858C4.79552 0.756978 4.85168 0.747737 4.93383 0.742085C5.10882 0.730046 5.37915 0.73626 5.75194 0.805719C6.49776 0.944683 7.64754 1.33582 9.24569 2.32792L9.47048 2.46746L9.72714 2.4032C12.3529 1.74575 15.1003 1.74575 17.726 2.4032L17.9973 2.47112L18.2287 2.31415C19.7671 1.27063 20.9137 0.854412 21.67 0.703045C22.0485 0.627296 22.329 0.617868 22.5131 0.628741C22.6018 0.633984 22.6618 0.643438 22.6969 0.650296L23.0352 0.92096C23.5159 2.35149 23.592 3.75527 23.1932 5.15009L23.7941 5.32192L23.3139 5.72203C24.3552 6.97154 24.8741 8.42144 24.8741 10.0994C24.8741 13.2731 23.9755 15.2316 22.7401 16.4672C21.4911 17.7163 19.8178 18.3074 18.1208 18.5811ZM0.750044 18.9557C0.750018 18.9556 0.750416 18.9556 0.751281 18.9558C0.750495 18.9558 0.75007 18.9557 0.750044 18.9557Z" fill="black" stroke="#1D3E6F" stroke-width="1.25" />
</svg>