<svg width="440" height="542" viewBox="0 0 440 542" fill="none" xmlns="http://www.w3.org/2000/svg">
<path d="M254.661 61.4249L241.914 62.457L191.784 62.3247C164.227 62.2453 136.383 62.113 129.909 62.0336C122.318 61.9277 117.906 61.9807 117.419 62.1395C116.503 62.4835 61.8463 123.988 61.5026 125.099C61.3594 125.496 61.2161 126.184 61.1875 126.634C61.1302 127.058 62.6771 136.241 64.625 147.012L68.1771 166.596L61.9896 175.171C56.5755 182.687 55.8021 183.904 55.5729 185.148C55.4297 185.942 55.3724 186.736 55.4297 186.921C55.487 187.106 58.9245 209.205 63.0208 236.066C67.1172 262.928 70.5547 285.212 70.6406 285.609C70.7265 286.032 70.9844 286.35 71.2135 286.35C71.4427 286.35 71.6146 286.588 71.6146 286.879C71.6146 287.196 71.8151 287.408 72.1302 287.435C72.388 287.435 73.3047 287.541 74.1354 287.646C75.1667 287.779 75.7109 287.752 75.7969 287.567C75.8542 287.408 78.8047 267.083 82.3281 242.418L88.7448 197.56L105.961 163.553C115.414 144.842 123.206 129.44 123.263 129.334C123.349 129.096 224.039 119.092 226.159 119.092C227.219 119.092 316.393 137.114 316.68 137.405C316.909 137.617 345.268 210.501 345.326 211.031C345.354 211.295 345.555 211.666 345.784 211.825C346.099 212.036 354.435 221.696 357.271 225.11C357.414 225.295 356.841 240.645 355.924 260.758C355.065 280.21 354.349 296.327 354.349 296.592C354.349 297.015 354.721 297.147 356.383 297.412C357.529 297.597 358.474 297.703 358.531 297.677C358.56 297.624 364.776 274.97 372.339 247.314C384.255 203.673 386.003 196.978 385.63 196.713C385.401 196.528 385.057 196.157 384.885 195.893C384.714 195.602 384.37 195.099 384.112 194.755C383.826 194.411 380.188 183.931 375.977 171.492C371.766 159.054 368.156 148.679 367.956 148.468C367.612 148.124 367.669 144.048 368.242 121.871C368.615 107.447 368.987 93.7914 369.073 91.489C369.159 89.213 369.13 87.334 368.987 87.334C368.872 87.334 368.128 86.8047 367.354 86.1695C366.581 85.5079 359.19 79.4474 350.911 72.6725L335.872 60.3663H332.292L328.682 60.3398L326.992 65.3681C326.076 68.1205 325.245 70.5023 325.13 70.6347C325.044 70.7934 318.083 68.5439 309.576 65.6328L294.164 60.3663L280.786 60.3928C267.753 60.3928 267.094 60.4192 254.661 61.4249ZM307.599 69.1791L325.56 75.2925L327.049 74.6308C328.367 74.0486 328.625 73.8104 328.969 72.7783C329.198 72.1167 330.057 69.6555 330.859 67.2736C332.206 63.3568 332.378 63.0128 332.836 63.3039C333.094 63.4892 340.37 69.4173 348.992 76.4569L364.661 89.2659V92.3358C364.661 94.0296 364.346 107.5 363.945 122.268C363.544 137.035 363.286 149.421 363.372 149.791C363.487 150.162 363.859 150.744 364.203 151.114C364.661 151.591 367.01 158.207 372.51 174.536C376.75 187.054 380.388 197.692 380.589 198.195C380.961 199.042 380.531 200.789 370.333 238.21C364.49 259.726 359.648 277.299 359.591 277.246C359.534 277.219 360.049 265.204 360.68 250.543C361.711 227.756 361.826 223.866 361.482 223.549C361.253 223.363 358.445 220.108 355.266 216.324L349.422 209.469L334.841 172.021C324.557 145.663 320.089 134.441 319.659 134.177C318.799 133.542 227.964 115.043 226.016 115.069C225.156 115.096 201.122 117.425 172.62 120.256C136.24 123.882 120.685 125.523 120.456 125.761C120.255 125.946 112.091 141.931 102.323 161.303L84.5338 196.501L79.0052 235.193C75.9687 256.497 73.4193 273.911 73.3333 273.911C73.2474 273.911 70.125 254.062 66.401 229.768L59.612 185.651L66.0573 176.706C71.0989 169.666 72.4739 167.575 72.4739 166.914C72.4739 166.437 70.8698 157.201 68.8932 146.351C66.9453 135.526 65.4271 126.528 65.5703 126.37C68.2344 123.114 118.995 66.1621 119.367 66.0562C120.026 65.7916 129.68 65.8445 146.237 66.1621C153.484 66.2944 178.12 66.4003 200.951 66.4003H242.487L265.547 64.6007C278.237 63.6215 288.836 62.8805 289.122 62.9334C289.409 63.0128 297.716 65.8181 307.599 69.1791Z" fill="#A95AE8"/>
<path d="M249.792 195.999C249.734 196.607 247.471 207.326 247.357 207.484C247.128 207.802 247.729 209.125 248.417 209.787C248.846 210.21 249.362 210.396 250.107 210.396C250.68 210.396 261.766 211.533 274.714 212.91L298.26 215.45L312.497 223.204C320.318 227.465 327.307 231.276 328.023 231.647L329.341 232.361L331.117 230.853L332.922 229.318L320.003 215.556C312.898 207.987 306.654 201.45 306.109 201.053L305.164 200.312L280.271 198.063C263.685 196.581 254.432 195.866 252.599 195.893C251.052 195.946 249.792 195.972 249.792 195.999ZM278.867 201.953C292.273 203.144 303.388 204.256 303.617 204.414C303.932 204.626 319.372 221.008 321.091 222.94C321.349 223.231 321.435 223.39 321.263 223.31C321.12 223.231 316.135 220.558 310.234 217.356L299.492 211.533L276.003 209.072C263.083 207.723 252.427 206.532 252.284 206.426C251.997 206.188 253.229 200.259 253.63 200.021C253.802 199.915 254.089 199.81 254.232 199.81C254.404 199.81 265.49 200.762 278.867 201.953Z" fill="#A95AE8"/>
<path d="M147.956 201.45C130.625 202.006 116.073 202.535 115.586 202.615C114.784 202.721 114.068 203.726 106.792 214.868C102.409 221.537 98.8281 227.121 98.8281 227.28C98.8281 227.439 99.2005 227.783 99.6875 228.048C100.174 228.286 100.547 228.577 100.547 228.656C100.547 228.736 100.805 229.08 101.091 229.424L101.635 230.085L109.799 225.401L117.992 220.717L141.711 219.658C154.745 219.076 166.318 218.6 167.435 218.6C169.182 218.6 169.497 218.52 170.013 217.964C170.328 217.62 174.195 214.312 178.607 210.66C183.018 206.982 186.914 203.541 187.258 202.985C188.575 200.948 187.458 200.312 182.474 200.365C180.812 200.392 165.286 200.868 147.956 201.45ZM178.607 205.341C178.12 205.764 175.456 208.014 172.648 210.369C167.979 214.233 167.435 214.63 166.49 214.63C165.888 214.63 154.487 215.106 141.081 215.715L116.732 216.774L111.948 219.526C109.284 221.034 107.135 222.225 107.135 222.172C107.135 221.855 117.305 206.638 117.562 206.532C117.992 206.399 170.414 204.653 175.456 204.6L179.466 204.573L178.607 205.341Z" fill="#A95AE8"/>
<path d="M133.518 241.915C126.07 244.218 119.883 246.15 119.826 246.229C119.596 246.441 121 250.093 121.286 250.093C121.458 250.093 127.617 248.24 134.979 245.964L148.357 241.862L163.911 243.953C172.477 245.091 179.495 246.017 179.552 245.964C179.753 245.832 180.268 242.153 180.125 241.995C180.01 241.915 173.393 240.962 165.372 239.877C157.38 238.819 150.362 237.866 149.789 237.787L148.299 237.59L148.529 239.163L148.299 240.698L149 238C148.714 237.206 147.211 237.813 147.182 237.787C147.125 237.76 140.995 239.613 133.518 241.915Z" fill="#A95AE8"/>
<path d="M274.484 242.947C266.865 244.085 260.562 245.064 260.505 245.117C260.448 245.17 260.562 246.123 260.763 247.208C261.135 249.167 261.135 249.167 261.966 249.061C262.453 249.034 268.727 248.108 275.945 247.049L289.065 245.091L299.549 249.431C305.307 251.839 310.12 253.718 310.234 253.666C310.521 253.507 312.068 250.119 311.924 249.987C311.695 249.775 290.411 241.068 290.326 241.148C290.297 241.201 288.729 240.577 288.5 241L289.409 242.762L289.208 241.809C289.094 241.254 288.865 240.83 288.664 240.857C288.464 240.883 282.076 241.809 274.484 242.947Z" fill="#A95AE8"/>
<path d="M73.7916 320.463C72.9036 321.019 72.1588 321.574 72.1875 321.68C72.2161 321.786 72.0729 321.971 71.901 322.077C71.414 322.342 77.1719 408.511 77.7448 409.755C78.0599 410.443 97.539 430.609 145.148 479.464C147.727 482.137 149.932 484.28 150.047 484.254C150.161 484.201 150.562 484.386 150.964 484.598C151.565 484.968 155.003 485.101 175.312 485.603C188.318 485.921 208.112 486.424 219.341 486.715C236.128 487.138 239.852 487.191 240.568 486.9C241.055 486.715 267.008 467.078 298.232 443.286C329.484 419.494 355.323 399.831 355.638 399.566C356.182 399.169 356.182 399.116 355.695 398.64C355.008 397.925 355.065 397.767 356.068 397.767H356.927V367.332V336.897H355.781C354.893 336.897 354.549 336.765 354.177 336.236C353.919 335.865 353.604 335.574 353.49 335.574C353.375 335.574 339.682 345.975 323.096 358.705C296.427 379.109 292.875 381.755 292.703 381.253C292.589 380.961 292.359 380.194 292.187 379.612L291.901 378.5L287.661 379.532C285.341 380.088 283.221 380.564 282.935 380.564C282.648 380.564 268.583 371.99 251.654 361.51C234.724 351.03 220.745 342.455 220.544 342.455C220.344 342.455 214.901 344.069 208.456 346.054L196.768 349.654L186.255 344.122C180.469 341.079 175.427 338.459 175.026 338.274C174.396 337.983 170.529 338.565 144.948 342.852C128.792 345.525 114.469 347.96 113.094 348.224L110.63 348.727L108.625 347.298L106.591 345.896L105.302 347.457L103.984 349.018L105.789 350.342C107.451 351.533 126.815 365.294 131.656 368.708C133.26 369.846 134.062 370.243 134.721 370.243C135.237 370.243 148.586 369.767 164.37 369.185L193.13 368.152L206.193 372.202C213.411 374.451 228.479 379.135 239.708 382.655C250.909 386.149 260.104 388.954 260.104 388.874C260.104 388.822 260.591 388.98 261.221 389.271L262.31 389.801L267.724 388.477C270.703 387.763 275.602 386.572 278.581 385.857C281.589 385.143 285.685 384.137 287.747 383.634C289.781 383.132 291.5 382.735 291.529 382.761C291.615 382.867 222.807 435.479 222.32 435.691C221.69 435.955 148.987 424.39 148.529 423.914C148.328 423.729 131.885 400.228 112.005 371.699C92.0963 343.17 75.7396 319.748 75.6536 319.642C75.539 319.537 74.7083 319.907 73.7916 320.463ZM111.003 377.653C129.88 404.647 145.521 426.931 145.779 427.169C146.781 428.042 143.945 427.566 194.935 435.611C215.503 438.84 221.117 439.634 223.008 439.555C224.182 439.475 224.612 439.264 227.104 437.332C229.883 435.188 351.599 342.085 352.286 341.582C352.544 341.397 352.63 346.928 352.602 369.079V396.84L304.047 433.759C277.32 454.057 251.768 473.509 247.185 476.949L238.906 483.222L234.695 483.089C232.346 483.01 223.294 482.798 214.557 482.586C205.82 482.348 192.214 482.004 184.336 481.793C176.458 481.607 166.289 481.343 161.706 481.237C157.151 481.131 153.141 480.972 152.797 480.893C152.482 480.813 151.021 479.49 149.531 477.955C148.07 476.42 145.664 473.985 144.203 472.53C142.742 471.074 128.018 455.963 111.461 438.919L81.3541 407.956V406.156C81.3541 404.409 76.6849 333.245 76.3411 329.752C76.2265 328.614 76.2552 328.111 76.4557 328.296C76.5989 328.429 92.1536 350.659 111.003 377.653ZM184.737 347.88C191.211 351.294 195.852 353.57 196.367 353.623C196.854 353.65 202.268 352.115 208.599 350.156L219.971 346.663L248.474 364.315C264.172 374.028 276.948 382.02 276.891 382.073C276.833 382.126 273.654 382.946 269.872 383.873C263.227 385.487 262.883 385.54 261.594 385.222C260.849 385.037 245.552 380.3 227.591 374.689C209.63 369.079 194.477 364.421 193.932 364.342C193.388 364.236 180.326 364.633 164.914 365.188C137.443 366.194 136.841 366.194 135.437 365.718C134.664 365.453 133.862 365.135 133.69 365.003C133.49 364.871 129.25 361.88 124.237 358.36C119.253 354.814 115.214 351.85 115.299 351.718C115.357 351.612 115.93 351.506 116.503 351.48C117.104 351.48 129.909 349.389 144.948 346.848C159.987 344.308 172.677 342.217 173.135 342.217C173.708 342.19 177.174 343.884 184.737 347.88Z" fill="#A95AE8"/>
<path d="M163.74 397.555C163.31 400.731 163.31 400.837 164.398 402.636C165.143 403.88 167.865 406.818 174.224 413.169C184.622 423.57 186.055 424.867 186.628 424.655C187.458 424.364 219.714 405.388 219.714 405.203C219.714 405.097 219.513 404.78 219.284 404.489C219.055 404.224 218.854 403.483 218.854 402.874C218.854 401.922 218.74 401.736 218.224 401.63C217.622 401.498 164.542 396.417 164.083 396.443C163.969 396.443 163.826 396.946 163.74 397.555ZM190.638 402.954C202.297 404.039 211.922 404.965 212.036 404.992C212.151 405.018 210.805 405.891 209.029 406.923C207.281 407.956 201.523 411.317 196.31 414.387L186.771 419.971L177.719 410.84C172.734 405.838 168.552 401.736 168.409 401.736C168.266 401.736 168.036 401.498 167.865 401.234C167.607 400.757 167.664 400.731 168.495 400.837C169.01 400.889 178.979 401.842 190.638 402.954Z" fill="#A95AE8"/>
</svg>
